HIERARCHY
ROOT root
{
	OFFSET 0.000000 0.000000 0.000000
	CHANNELS 6 Xposition Yposition Zposition Zrotation Yrotation Xrotation
	JOINT lhip
	{
		OFFSET 0.058581 -0.082280 -0.017664
		CHANNELS 3 Zrotation Yrotation Xrotation
		JOINT lknee
		{
			OFFSET 0.043451 -0.386469 0.008037
			CHANNELS 3 Zrotation Yrotation Xrotation
			JOINT lankle
			{
				OFFSET -0.014790 -0.426874 -0.037428
				CHANNELS 3 Zrotation Yrotation Xrotation
				JOINT ltoe
				{
					OFFSET 0.041054 -0.060286 0.122042
					CHANNELS 3 Zrotation Yrotation Xrotation
					End Site
					{
						OFFSET 0.000000 0.000000 0.000000
					}
				}
			}
		}
	}
	JOINT rhip
	{
		OFFSET -0.060310 -0.090513 -0.013543
		CHANNELS 3 Zrotation Yrotation Xrotation
		JOINT rknee
		{
			OFFSET -0.043257 -0.383688 -0.004843
			CHANNELS 3 Zrotation Yrotation Xrotation
			JOINT rankle
			{
				OFFSET 0.019056 -0.420046 -0.034562
				CHANNELS 3 Zrotation Yrotation Xrotation
				JOINT rtoe
				{
					OFFSET -0.034840 -0.062106 0.130323
					CHANNELS 3 Zrotation Yrotation Xrotation
					End Site
					{
						OFFSET 0.000000 0.000000 0.000000
					}
				}
			}
		}
	}
	JOINT lowerback
	{
		OFFSET 0.004439 0.124404 -0.038385
		CHANNELS 3 Zrotation Yrotation Xrotation
		JOINT upperback
		{
			OFFSET 0.004488 0.137956 0.026820
			CHANNELS 3 Zrotation Yrotation Xrotation
			JOINT chest
			{
				OFFSET -0.002265 0.056032 0.002855
				CHANNELS 3 Zrotation Yrotation Xrotation
				JOINT lowerneck
				{
					OFFSET -0.013390 0.211636 -0.033468
					CHANNELS 3 Zrotation Yrotation Xrotation
					JOINT upperneck
					{
						OFFSET 0.010113 0.088937 0.050410
						CHANNELS 3 Zrotation Yrotation Xrotation
						End Site
						{
							OFFSET 0.000000 0.000000 0.000000
						}
					}
				}
				JOINT lclavicle
				{
					OFFSET 0.071702 0.114000 -0.018898
					CHANNELS 3 Zrotation Yrotation Xrotation
					JOINT lshoulder
					{
						OFFSET 0.122921 0.045205 -0.019046
						CHANNELS 3 Zrotation Yrotation Xrotation
						JOINT lelbow
						{
							OFFSET 0.255332 -0.015649 -0.022946
							CHANNELS 3 Zrotation Yrotation Xrotation
							JOINT lwrist
							{
								OFFSET 0.265709 0.012698 -0.007375
								CHANNELS 3 Zrotation Yrotation Xrotation
								End Site
								{
									OFFSET 0.000000 0.000000 0.000000
								}
							}
						}
					}
				}
				JOINT rclavicle
				{
					OFFSET -0.082954 0.112472 -0.023707
					CHANNELS 3 Zrotation Yrotation Xrotation
					JOINT rshoulder
					{
						OFFSET -0.113228 0.046853 -0.008472
						CHANNELS 3 Zrotation Yrotation Xrotation
						JOINT relbow
						{
							OFFSET -0.260127 -0.014369 -0.031269
							CHANNELS 3 Zrotation Yrotation Xrotation
							JOINT rwrist
							{
								OFFSET -0.269108 0.006794 -0.006027
								CHANNELS 3 Zrotation Yrotation Xrotation
								End Site
								{
									OFFSET 0.000000 0.000000 0.000000
								}
							}
						}
					}
				}
			}
		}
	}
}
MOTION
Frames: 6
Frame Time: 0.033333
0.013911 2.376259 1.005694 3.063712 0.931525 89.212438 8.298912 5.007129 5.436454 -1.527663 1.247864 -6.098829 -3.333583 11.428679 -5.860162 0.000000 -0.000000 0.000000 -6.513096 -7.009637 3.246976 1.402575 -5.709317 -1.049249 6.468091 -6.348066 -4.481100 0.000000 -0.000000 0.000000 0.538263 0.236841 4.499631 -0.081216 -1.635781 -1.521659 0.475719 -3.364629 0.459398 3.090363 1.448478 -4.371802 1.448035 1.368099 9.203391 -30.709842 11.378940 3.284896 -56.061676 1.856337 6.900534 11.598546 -29.199264 -1.736985 7.773186 -24.058168 -19.334342 29.061049 -3.749436 0.646421 56.694457 -0.421403 10.782385 -11.916089 12.566385 -6.519311 -2.731716 10.552622 -8.754391 
0.014136 2.375904 1.005534 3.075368 0.936782 89.239979 8.287966 4.953698 5.405970 -1.523038 1.446916 -6.037039 -3.203104 11.295618 -5.899970 0.000000 -0.000000 0.000000 -6.523689 -7.024779 3.207702 1.372838 -5.835030 -0.961558 6.686037 -6.162588 -4.542793 0.000000 -0.000000 0.000000 0.463248 0.290293 4.279219 0.034215 -1.780347 -1.294513 0.478139 -3.428263 0.353203 2.996508 1.470288 -3.399932 1.338293 1.151897 10.432440 -30.629114 11.368579 3.279912 -56.178902 1.916619 6.989226 11.545205 -28.933158 -2.017954 7.176913 -23.913651 -19.405942 29.072341 -3.577666 0.868318 56.694115 -0.208881 10.859677 -12.004896 12.484544 -6.651910 -2.285950 10.678795 -8.771851 
0.014407 2.375276 1.005514 3.066238 0.931839 89.304363 8.277194 4.950762 5.396493 -1.534962 1.495015 -6.055731 -3.189528 11.305611 -5.915413 0.000000 -0.000000 0.000000 -6.569818 -7.154256 3.189757 1.403851 -5.718595 -0.903594 6.791097 -6.114581 -4.519598 0.000000 -0.000000 0.000000 0.475684 0.328548 3.864122 0.043202 -1.830058 -1.125244 0.348507 -3.375328 0.402360 3.041497 1.467843 -2.985786 1.249958 1.198112 12.522067 -30.782678 11.536013 3.255800 -55.838866 1.731083 7.117292 11.504578 -28.829576 -1.730518 7.195166 -23.846028 -19.363696 29.360908 -3.704612 0.894376 56.492238 0.050938 10.981888 -11.916637 12.414892 -6.647292 -2.278337 10.573733 -8.657301 
0.014418 2.374750 1.005045 3.120804 0.902672 89.341261 8.313377 4.652322 5.427796 -1.713928 1.770000 -6.069387 -2.843267 11.186596 -5.978254 0.000000 -0.000000 0.000000 -6.627385 -7.210841 3.161718 1.415036 -5.945677 -0.861955 6.744895 -5.785366 -4.487189 0.000000 -0.000000 0.000000 0.451308 0.424935 3.541464 0.049861 -1.808461 -1.023697 0.200588 -3.550825 0.010577 2.989661 1.366294 -1.673974 0.911491 1.268527 17.941606 -31.163064 11.643877 2.825048 -55.019178 1.844646 7.624451 11.115590 -28.184099 -1.266681 7.602206 -23.794767 -19.928858 29.939531 -4.127995 1.256943 55.869175 0.778465 11.327206 -11.701931 11.937809 -6.565435 -2.347214 10.634994 -8.687802 
0.014574 2.373757 1.004835 3.093185 0.943161 89.296682 8.390664 4.589530 5.543487 -1.788670 1.908298 -6.085206 -2.712296 11.072791 -5.964179 0.000000 -0.000000 0.000000 -6.603185 -7.142554 3.249776 1.434097 -6.133219 -0.876400 6.622137 -5.629711 -4.437757 0.000000 -0.000000 0.000000 0.514650 0.405393 3.418190 -0.053760 -1.688486 -0.929967 0.208764 -3.547182 -0.055040 2.950112 1.536076 -1.395084 0.906395 1.409312 19.388518 -31.317471 11.615012 3.035772 -54.849746 1.699971 7.587485 11.372886 -28.284467 -1.126839 7.458767 -23.668478 -20.111364 30.016615 -4.258185 1.431125 55.883501 1.038455 11.355758 -11.696094 11.844049 -6.250853 -2.368667 10.482189 -8.954804 
0.014726 2.373543 1.005338 3.010460 1.063493 89.172908 8.483697 4.651095 5.573536 -1.673542 1.611507 -5.897080 -3.086922 11.705434 -5.755611 0.000000 -0.000000 0.000000 -6.466007 -7.179275 3.419827 1.361169 -5.146138 -0.960115 6.991125 -6.561075 -4.526539 0.000000 -0.000000 0.000000 0.421544 0.327635 3.488372 0.137511 -1.630733 -2.919846 0.064805 -3.067160 1.292177 2.820096 0.158365 2.173802 -0.342525 1.016935 24.802410 -30.529164 12.908753 4.833289 -55.561725 -1.035434 8.234933 11.272218 -27.769274 -0.721018 9.572587 -23.675865 -20.100283 29.931700 -5.070785 0.428200 56.107650 0.954244 12.679791 -11.653683 11.711339 -6.652158 -3.323986 10.346978 -9.005093 
